<svg width="70" height="61" viewBox="0 0 70 61" fill="none" xmlns="http://www.w3.org/2000/svg">
<path d="M16.4352 60.6291C12.0942 60.6244 7.9323 58.8978 4.86272 55.8282C1.79315 52.7587 0.0665688 48.5968 0.0618043 44.2558V44.1737C0.0618043 44.1197 0.0548041 44.0387 0.0488039 43.9317C-0.287204 37.9856 0.684819 21.9312 16.9282 1.35972C17.0745 1.17497 17.2813 1.04781 17.5122 1.00067C17.7431 0.953543 17.9832 0.989469 18.1902 1.10211C18.3972 1.21476 18.5578 1.39688 18.6436 1.61636C18.7294 1.83584 18.735 2.07858 18.6593 2.30175C18.6133 2.43775 14.1741 15.7351 17.2072 27.9024C21.4793 28.1028 25.5033 29.9669 28.4188 33.0958C31.3343 36.2248 32.9099 40.3703 32.8085 44.6459C32.7071 48.9214 30.9369 52.9876 27.8764 55.9749C24.8158 58.9622 20.708 60.6334 16.4312 60.6311L16.4352 60.6291ZM2.06185 44.3128C2.07292 47.1531 2.9253 49.9265 4.51137 52.2828C6.09745 54.6391 8.34611 56.4727 10.9734 57.552C13.6008 58.6313 16.489 58.908 19.2735 58.347C22.0579 57.7861 24.6138 56.4128 26.6183 54.4005C28.6229 52.3881 29.9862 49.8269 30.5363 47.0403C31.0864 44.2537 30.7985 41.3666 29.709 38.7435C28.6195 36.1203 26.7772 33.8788 24.4147 32.3019C22.0523 30.725 19.2756 29.8834 16.4352 29.8834C16.2162 29.8834 16.0033 29.8114 15.8291 29.6786C15.655 29.5458 15.5292 29.3596 15.4712 29.1484C13.1711 20.7782 14.2991 11.998 15.4422 6.66985C2.55786 24.7183 1.74884 38.4946 2.04985 43.8197C2.06343 43.9837 2.06744 44.1483 2.06185 44.3128ZM53.6221 60.6291C49.2811 60.6244 45.1192 58.8978 42.0496 55.8282C38.98 52.7587 37.2535 48.5968 37.2487 44.2558V44.1737C37.2487 44.1197 37.2417 44.0387 37.2357 43.9317C36.8997 37.9856 37.8717 21.9312 54.1151 1.35972C54.2614 1.17497 54.4682 1.04781 54.6991 1.00067C54.93 0.953543 55.1701 0.989469 55.3771 1.10211C55.5841 1.21476 55.7447 1.39688 55.8305 1.61636C55.9163 1.83584 55.9218 2.07858 55.8461 2.30175C55.8001 2.43775 51.361 15.7351 54.3941 27.9024C58.6662 28.1028 62.6902 29.9669 65.6057 33.0958C68.5212 36.2248 70.0968 40.3703 69.9954 44.6459C69.894 48.9214 68.1238 52.9876 65.0632 55.9749C62.0027 58.9622 57.8948 60.6334 53.6181 60.6311L53.6221 60.6291ZM39.2487 44.3128C39.2598 47.1531 40.1122 49.9265 41.6983 52.2828C43.2843 54.6391 45.533 56.4727 48.1603 57.552C50.7877 58.6313 53.6759 58.908 56.4604 58.347C59.2448 57.7861 61.8007 56.4128 63.8052 54.4005C65.8098 52.3881 67.1731 49.8269 67.7232 47.0403C68.2733 44.2537 67.9854 41.3666 66.8959 38.7435C65.8064 36.1203 63.9641 33.8788 61.6016 32.3019C59.2392 30.725 56.4625 29.8834 53.6221 29.8834C53.4031 29.8834 53.1902 29.8114 53.016 29.6786C52.8418 29.5458 52.7161 29.3596 52.6581 29.1484C50.358 20.7782 51.486 11.998 52.6291 6.66985C39.7448 24.7183 38.9347 38.4946 39.2357 43.8197C39.2497 43.9837 39.254 44.1483 39.2487 44.3128Z" fill="#FF494A"/>
</svg>
