<svg width="110" height="94" viewBox="0 0 110 94" fill="none" xmlns="http://www.w3.org/2000/svg">
<path d="M25.8267 93.7336C19.0051 93.7261 12.465 91.0129 7.64142 86.1893C2.8178 81.3657 0.104608 74.8256 0.097121 68.004V67.8752C0.097121 67.7903 0.0861207 67.663 0.0766919 67.4949C-0.451321 58.1509 1.07614 32.9226 26.6015 0.595971C26.8313 0.305639 27.1564 0.105816 27.5192 0.0317525C27.882 -0.0423112 28.2594 0.0141427 28.5847 0.191155C28.9099 0.368168 29.1623 0.654366 29.2971 0.999264C29.4319 1.34416 29.4406 1.7256 29.3217 2.07629C29.2494 2.29001 22.2737 23.1858 27.0399 42.3058C33.7531 42.6209 40.0767 45.55 44.6582 50.467C49.2397 55.3839 51.7155 61.8983 51.5562 68.6171C51.3969 75.3358 48.6151 81.7255 43.8057 86.4198C38.9963 91.1141 32.5411 93.7403 25.8205 93.7368L25.8267 93.7336ZM3.24005 68.0936C3.25744 72.557 4.5969 76.9152 7.0893 80.618C9.58171 84.3208 13.1153 87.2021 17.244 88.8981C21.3727 90.5942 25.9113 91.0289 30.2869 90.1475C34.6625 89.2661 38.6788 87.108 41.8288 83.9457C44.9788 80.7834 47.1212 76.7587 47.9856 72.3798C48.85 68.0008 48.3977 63.4639 46.6856 59.3418C44.9735 55.2198 42.0785 51.6974 38.366 49.2194C34.6536 46.7414 30.2902 45.4189 25.8267 45.4189C25.4826 45.4188 25.148 45.3058 24.8743 45.0971C24.6007 44.8884 24.403 44.5957 24.3118 44.2639C20.6975 31.1107 22.4701 17.3132 24.2663 8.94046C4.0195 37.3023 2.74818 58.9508 3.2212 67.3189C3.24254 67.5765 3.24884 67.8352 3.24005 68.0936ZM84.2633 93.7336C77.4417 93.7261 70.9016 91.0129 66.078 86.1893C61.2543 81.3657 58.5411 74.8256 58.5337 68.004V67.8752C58.5337 67.7903 58.5227 67.663 58.5132 67.4949C57.9852 58.1509 59.5127 32.9226 85.038 0.595971C85.2679 0.305639 85.5929 0.105816 85.9557 0.0317525C86.3186 -0.0423112 86.6959 0.0141427 87.0212 0.191155C87.3465 0.368168 87.5988 0.654366 87.7336 0.999264C87.8685 1.34416 87.8772 1.7256 87.7582 2.07629C87.6859 2.29001 80.7102 23.1858 85.4764 42.3058C92.1897 42.6209 98.5132 45.55 103.095 50.467C107.676 55.3839 110.152 61.8983 109.993 68.6171C109.833 75.3358 107.052 81.7255 102.242 86.4198C97.4328 91.1141 90.9776 93.7403 84.257 93.7368L84.2633 93.7336ZM61.6766 68.0936C61.694 72.557 63.0334 76.9152 65.5258 80.618C68.0182 84.3208 71.5518 87.2021 75.6805 88.8981C79.8092 90.5942 84.3478 91.0289 88.7234 90.1475C93.099 89.2661 97.1153 87.108 100.265 83.9457C103.415 80.7834 105.558 76.7587 106.422 72.3798C107.287 68.0008 106.834 63.4639 105.122 59.3418C103.41 55.2198 100.515 51.6974 96.8026 49.2194C93.0901 46.7414 88.7267 45.4189 84.2633 45.4189C83.9191 45.4188 83.5845 45.3058 83.3109 45.0971C83.0372 44.8884 82.8396 44.5957 82.7484 44.2639C79.134 31.1107 80.9066 17.3132 82.7028 8.94046C62.456 37.3023 61.1832 58.9508 61.6562 67.3189C61.678 67.5765 61.6849 67.8352 61.6766 68.0936Z" fill="#FF014F"/>
</svg>
