<svg width="184" height="78" viewBox="0 0 184 78" fill="none" xmlns="http://www.w3.org/2000/svg">
<g clip-path="url(#clip0_2_6184)">
<path d="M50.5038 50.1685C45.3657 50.1685 41.9642 46.2762 41.0153 44.7686C42.2328 35.2308 45.7955 32.2152 50.5038 32.2152C55.1587 32.2152 58.7751 35.862 58.7751 41.1917C58.7751 46.5216 55.1587 50.1685 50.5038 50.1685ZM50.5038 26.3594C42.1254 26.3594 37.4349 31.7068 36.0921 37.212C34.5704 34.4068 33.4425 30.6548 32.5653 27.1659H20.9821V41.2795C20.9821 46.399 18.601 50.186 13.9463 50.186C9.29156 50.186 6.62405 46.399 6.62405 41.2795L6.67775 27.1659H0V41.2795C0 45.3997 1.36062 49.1341 3.84911 51.7989C6.40922 54.5516 9.90026 55.9892 13.9463 55.9892C22.0026 55.9892 27.6241 49.9406 27.6241 41.2795V31.7944C28.4654 34.9152 30.4707 40.9113 34.3018 46.1711L30.7213 66.1406H37.5065L39.8695 51.9918C40.6394 52.6229 41.4629 53.184 42.3401 53.6925C44.6138 55.0951 47.2097 55.8841 49.8952 55.9716C49.8952 55.9716 50.3069 55.9892 50.5218 55.9892C58.8287 55.9892 65.4347 49.6952 65.4347 41.1917C65.4347 32.6886 58.8108 26.3594 50.5038 26.3594Z" fill="#9F9F9F"/>
<path d="M146.443 30.1832V27.1676H139.891V55.0967H146.533V44.1566C146.533 37.4241 147.159 32.5852 156.379 33.2163V26.8345C152.082 26.5189 148.735 27.3955 146.443 30.1832Z" fill="#9F9F9F"/>
<path d="M100.332 27.1719L95.5159 46.703L90.3778 27.1719H81.9278L76.7716 46.703L71.9737 27.1719H65.2422L72.6183 55.1187H80.603L86.1528 35.2719L91.6489 55.1187H99.6336L107.439 27.1719H100.332Z" fill="#9F9F9F"/>
<path d="M122.065 50.186C117.339 50.186 113.794 46.5394 113.794 41.1917C113.794 35.8444 117.357 32.2152 122.065 32.2152C126.72 32.2152 130.337 35.862 130.337 41.1917C130.337 46.5216 126.72 50.186 122.065 50.186ZM122.065 26.3594C113.705 26.3594 107.152 32.7061 107.152 41.1917C107.152 49.6775 113.705 55.9716 122.065 55.9716C130.372 55.9716 136.978 49.6775 136.978 41.1917C136.978 32.7061 130.39 26.3594 122.065 26.3594Z" fill="#9F9F9F"/>
<path d="M165.906 41.3699H167.446L176.719 55.1152H184.221L173.55 39.8795C178.725 37.8984 182.198 32.7263 182.198 27.1685H175.573C175.573 33.1997 170.722 35.4789 165.906 35.4789V16.1406H159.246V55.1152H165.888L165.906 41.3699Z" fill="#9F9F9F"/>
</g>
<defs>
<clipPath id="clip0_2_6184">
<rect width="184" height="77.4737" fill="white"/>
</clipPath>
</defs>
</svg>
