<svg width="184" height="66" viewBox="0 0 184 66" fill="none" xmlns="http://www.w3.org/2000/svg">
<path d="M0 2.72656H39.7204V22.5868H19.8602L0 2.72656ZM0 22.5868H19.8602L39.7204 42.4469H0V22.5868ZM0 42.4469H19.8602V62.3071L0 42.4469Z" fill="#9F9F9F"/>
<path d="M62.1319 18.3943H78.1877V23.4963H68.2089V30.5865H78.1877V35.5758H68.2089V44.6541H62.1319V18.3943ZM81.4887 26.5721H87.2286V30.3611C87.5285 29.059 88.1418 28.0595 89.0668 27.3599C90.0154 26.6339 91.0686 26.2722 92.218 26.2722C92.8186 26.2722 93.3193 26.3231 93.7182 26.4222V31.7495C93.1457 31.6805 92.5696 31.6432 91.9926 31.6369C90.4171 31.6369 89.2304 32.1484 88.4289 33.1743C87.6303 34.1747 87.2286 35.6749 87.2286 37.6766V44.6541H81.4915V26.5721H81.4887ZM102.779 45.142C101.029 45.142 99.5026 44.7286 98.2023 43.9035C96.9266 43.0785 95.9125 41.9072 95.2765 40.527C94.6014 39.0777 94.2615 37.4376 94.2615 35.6131C94.2615 33.8122 94.6141 32.1857 95.3137 30.7364C95.9698 29.3362 97.0111 28.1522 98.315 27.3226C99.6389 26.4976 101.153 26.0842 102.855 26.0842C104.129 26.0842 105.269 26.3604 106.268 26.9101C107.268 27.4617 108.018 28.2122 108.519 29.1608V26.5721H114.221V44.6541H108.519V42.1026C108.018 43.0031 107.243 43.74 106.193 44.3161C105.143 44.8731 103.969 45.1565 102.779 45.142ZM104.43 40.3771C105.805 40.3771 106.868 39.9273 107.619 39.0268C108.369 38.1264 108.744 36.9879 108.744 35.6131C108.744 34.2628 108.369 33.137 107.619 32.2366C106.868 31.3361 105.805 30.8863 104.43 30.8863C103.128 30.8863 102.079 31.3234 101.279 32.1993C100.504 33.0752 100.116 34.212 100.116 35.6131C100.116 37.0142 100.504 38.1636 101.279 39.0641C102.079 39.94 103.13 40.3771 104.43 40.3771ZM118.235 26.5721H123.975V29.1981C124.377 28.2713 125.025 27.5207 125.925 26.9474C126.852 26.374 127.927 26.0842 129.152 26.0842C132.003 26.0842 133.892 27.1963 134.816 29.4234C135.325 28.4139 136.121 27.5789 137.105 27.0228C138.157 26.3895 139.366 26.0651 140.593 26.0842C144.87 26.0842 147.008 28.5338 147.008 33.4369V44.6541H141.231V34.4873C141.231 33.2633 141.006 32.3629 140.556 31.7868C140.105 31.2125 139.43 30.9236 138.53 30.9236C137.555 30.9236 136.804 31.2616 136.279 31.9367C135.754 32.5873 135.491 33.724 135.491 35.3505V44.6541H129.714V34.45C129.714 33.2252 129.49 32.3365 129.039 31.7868C128.615 31.2125 127.951 30.9236 127.053 30.9236C126.051 30.9236 125.288 31.2616 124.763 31.9367C124.238 32.5873 123.975 33.724 123.975 35.3505V44.6541H118.237V26.5721H118.235ZM168.57 34.6754C168.57 35.4495 168.519 36.2882 168.418 37.1887H155.065C155.116 38.3644 155.515 39.2631 156.265 39.8901C157.016 40.5143 158.031 40.8278 159.304 40.8278C161.08 40.8278 162.206 40.289 162.68 39.214H168.308C168.031 40.9904 167.056 42.427 165.381 43.5283C163.731 44.6032 161.705 45.142 159.304 45.142C156.204 45.142 153.765 44.3033 151.988 42.6278C150.238 40.9514 149.362 38.6143 149.362 35.6131C149.362 33.6622 149.762 31.974 150.563 30.5483C151.336 29.1245 152.528 27.9723 153.977 27.2472C155.453 26.473 157.166 26.0842 159.119 26.0842C160.968 26.0842 162.605 26.4467 164.031 27.1727C165.481 27.8987 166.595 28.9109 167.369 30.2112C168.17 31.5133 168.57 33.0007 168.57 34.6754ZM162.903 33.625C162.879 32.4247 162.541 31.5106 161.89 30.8863C161.241 30.2621 160.302 29.9486 159.077 29.9486C157.852 29.9486 156.877 30.2857 156.151 30.9617C155.451 31.6123 155.089 32.4992 155.062 33.625H162.903ZM171.101 26.5721H176.841V30.3611C177.141 29.059 177.754 28.0595 178.679 27.3599C179.577 26.653 180.687 26.2695 181.83 26.2722C182.43 26.2722 182.931 26.3231 183.33 26.4222V31.7495C182.758 31.6805 182.182 31.6432 181.605 31.6369C180.029 31.6369 178.842 32.1484 178.041 33.1743C177.24 34.1747 176.841 35.6749 176.841 37.6766V44.6541H171.101V26.5721Z" fill="#9F9F9F"/>
</svg>
