<svg width="184" height="73" viewBox="0 0 184 73" fill="none" xmlns="http://www.w3.org/2000/svg">
<g clip-path="url(#clip0_2_6175)">
<path d="M57.6726 49.3167L59.9051 44.0981C62.3495 45.9085 65.5379 46.8667 68.7269 46.8667C71.0654 46.8667 72.5532 45.9619 72.5532 44.5775C72.4999 40.7432 58.4699 43.7253 58.3632 34.0853C58.3098 29.186 62.6682 25.4051 68.8337 25.4051C72.4999 25.4051 76.1676 26.3107 78.7713 28.3879L76.6852 33.7179C74.2895 32.1773 71.3307 31.1032 68.5143 31.1032C66.6011 31.1032 65.3252 32.0081 65.3252 33.1805C65.3786 36.9615 79.516 34.8842 79.6753 44.0981C79.6753 49.1041 75.4229 52.619 69.3642 52.619C64.9007 52.619 60.8084 51.5541 57.6719 49.3167H57.6726ZM146.568 42.2083C146.004 43.2097 145.184 44.0432 144.192 44.6232C143.201 45.2032 142.072 45.509 140.923 45.5091C137.342 45.5091 134.44 42.6002 134.44 39.012C134.44 35.4239 137.342 32.515 140.923 32.515C142.072 32.5151 143.201 32.8208 144.192 33.4009C145.184 33.9809 146.004 34.8143 146.568 35.8157L152.774 32.3702C150.449 28.2149 146.015 25.4051 140.923 25.4051C133.424 25.4051 127.345 31.4966 127.345 39.012C127.345 46.5267 133.424 52.619 140.923 52.619C146.015 52.619 150.449 49.8092 152.774 45.6539L146.568 42.2083ZM83.7028 52.0862H91.4621V14.0781H83.7036L83.7028 52.0862ZM156.693 14.0781V52.0862H164.452V40.699L173.646 52.0862H183.564L171.872 38.5585L182.714 25.9356H173.221L164.452 36.4301V14.0781H156.693ZM115.367 25.9371V29.0267C114.092 26.8961 110.956 25.4051 107.661 25.4051C100.859 25.4051 95.4911 31.4234 95.4911 38.9853C95.4911 46.5473 100.859 52.619 107.661 52.619C110.956 52.619 114.092 51.1279 115.367 48.9973V52.0862H123.127V25.9371H115.367ZM115.367 42.2609C114.251 44.1247 111.913 45.5083 109.309 45.5083C105.728 45.5083 102.825 42.6002 102.825 39.012C102.825 35.4239 105.728 32.515 109.309 32.515C111.913 32.515 114.251 33.9527 115.367 35.8691V42.2609Z" fill="#9F9F9F"/>
<path d="M16.6939 13.2383C14.1794 13.2383 12.1412 15.2812 12.1412 17.8006C12.1406 18.3991 12.2579 18.9919 12.4864 19.5451C12.7148 20.0983 13.05 20.6011 13.4728 21.0248C13.8955 21.4484 14.3976 21.7847 14.9503 22.0143C15.5029 22.2439 16.0954 22.3624 16.6939 22.363H21.2473V17.8006C21.2483 16.5918 20.7692 15.432 19.9153 14.5764C19.0614 13.7208 17.9026 13.2395 16.6939 13.2383ZM16.6939 25.4045H4.55267C2.03815 25.4045 0 27.4475 0 29.9676C0 32.487 2.03815 34.5299 4.55267 34.5299H16.6947C19.2084 34.5299 21.2473 32.487 21.2473 29.9676C21.2473 27.4475 19.2084 25.4045 16.6939 25.4045Z" fill="#9F9F9F"/>
<path d="M45.5325 29.9676C45.5325 27.4475 43.4936 25.4045 40.979 25.4045C38.4645 25.4045 36.4264 27.4475 36.4264 29.9676V34.5299H40.979C42.1878 34.5287 43.3465 34.0474 44.2004 33.1918C45.0544 32.3362 45.5335 31.1765 45.5325 29.9676ZM33.3913 29.9676V17.8006C33.3923 16.5918 32.9131 15.432 32.0592 14.5764C31.2053 13.7208 30.0466 13.2395 28.8378 13.2383C26.3233 13.2383 24.2852 15.2812 24.2852 17.8006V29.9668C24.2852 32.4878 26.3233 34.5307 28.8378 34.5307C30.0466 34.5295 31.2053 34.0482 32.0592 33.1926C32.9131 32.337 33.3923 31.1772 33.3913 29.9684" fill="#9F9F9F"/>
<path d="M28.8378 58.862C30.0466 58.8608 31.2053 58.3794 32.0592 57.5238C32.9131 56.6683 33.3923 55.5085 33.3913 54.2996C33.3923 53.0908 32.9131 51.931 32.0592 51.0754C31.2053 50.2198 30.0466 49.7385 28.8378 49.7373H24.2852V54.2996C24.2852 56.819 26.3233 58.862 28.8378 58.862ZM28.8378 46.6957H40.9798C43.4936 46.6957 45.5325 44.6528 45.5325 42.1326C45.5335 40.9238 45.0544 39.764 44.2004 38.9084C43.3465 38.0529 42.1878 37.5715 40.979 37.5703H28.8378C26.3233 37.5703 24.2852 39.6133 24.2852 42.1326C24.2846 42.7312 24.4018 43.324 24.6303 43.8772C24.8588 44.4304 25.194 44.9332 25.6167 45.3568C26.0395 45.7805 26.5415 46.1167 27.0942 46.3463C27.6469 46.5759 28.2394 46.6944 28.8378 46.695" fill="#9F9F9F"/>
<path d="M2.29717e-06 42.1325C-0.000598572 42.7311 0.116683 43.3239 0.345151 43.8771C0.573619 44.4303 0.908799 44.933 1.33155 45.3567C1.75431 45.7803 2.25636 46.1166 2.80904 46.3462C3.36172 46.5758 3.95421 46.6943 4.55267 46.6949C5.7614 46.6936 6.92015 46.2123 7.77406 45.3567C8.62798 44.5012 9.10712 43.3414 9.10611 42.1325V37.5702H4.55267C2.03815 37.5702 2.29717e-06 39.6131 2.29717e-06 42.1325ZM12.1412 42.1325V54.2988C12.1412 56.8189 14.1794 58.8618 16.6939 58.8618C17.9026 58.8606 19.0614 58.3793 19.9153 57.5237C20.7692 56.6681 21.2483 55.5084 21.2473 54.2995V42.1325C21.2479 41.5339 21.1306 40.9411 20.9021 40.3878C20.6736 39.8346 20.3383 39.3318 19.9155 38.9081C19.4927 38.4844 18.9905 38.1482 18.4378 37.9187C17.885 37.6891 17.2924 37.5707 16.6939 37.5702C14.1794 37.5702 12.1412 39.6131 12.1412 42.1325Z" fill="#9F9F9F"/>
</g>
<defs>
<clipPath id="clip0_2_6175">
<rect width="184" height="73" fill="white"/>
</clipPath>
</defs>
</svg>
