<svg width="184" height="80" viewBox="0 0 184 80" fill="none" xmlns="http://www.w3.org/2000/svg">
<path fill-rule="evenodd" clip-rule="evenodd" d="M113.636 63.0122C102.991 70.8297 87.5626 75.0005 74.2789 75.0005C55.653 75.0005 38.8849 68.1365 26.1992 56.7202C25.2025 55.8224 26.0955 54.599 27.2915 55.2981C40.9819 63.2347 57.9095 68.0093 75.3952 68.0093C87.1879 68.0093 100.161 65.5783 112.089 60.5335C113.891 59.7709 115.398 61.7093 113.636 63.0122Z" fill="#9F9F9F"/>
<path fill-rule="evenodd" clip-rule="evenodd" d="M118.061 57.9675C116.706 56.2356 109.067 57.1492 105.639 57.5544C104.594 57.6815 104.435 56.7758 105.375 56.1244C111.459 51.8582 121.442 53.0896 122.606 54.5196C123.77 55.9576 122.303 65.9279 116.586 70.6867C115.709 71.4176 114.872 71.0283 115.262 70.0591C116.546 66.8654 119.425 59.7074 118.061 57.9675Z" fill="#9F9F9F"/>
<path fill-rule="evenodd" clip-rule="evenodd" d="M105.879 26.0061V21.859C105.879 21.2314 106.358 20.8103 106.932 20.8103H125.565C126.164 20.8103 126.642 21.2393 126.642 21.859V25.4102C126.634 26.0061 126.132 26.7846 125.239 28.016L115.583 41.7521C119.171 41.6647 122.958 42.197 126.211 44.0243C126.945 44.4374 127.144 45.0411 127.2 45.637V50.0621C127.2 50.6659 126.53 51.3729 125.829 51.0075C120.096 48.0124 112.481 47.6867 106.142 51.0393C105.496 51.3888 104.819 50.6897 104.819 50.0859V45.8833C104.819 45.208 104.827 44.056 105.504 43.0312L116.691 27.0468H106.956C106.358 27.0468 105.879 26.6257 105.879 26.0061Z" fill="#9F9F9F"/>
<path fill-rule="evenodd" clip-rule="evenodd" d="M37.9057 51.8814H32.2366C31.6944 51.8417 31.2638 51.4365 31.224 50.9201V21.9306C31.224 21.3506 31.7104 20.8898 32.3163 20.8898H37.6027C38.1529 20.9137 38.5914 21.3347 38.6313 21.8591V25.6486H38.7349C40.1143 21.9862 42.7057 20.2781 46.1981 20.2781C49.7462 20.2781 51.9628 21.9862 53.5575 25.6486C54.9289 21.9862 58.0466 20.2781 61.3874 20.2781C63.7635 20.2781 66.3628 21.2553 67.9495 23.448C69.7436 25.887 69.3768 29.4302 69.3768 32.5365L69.3688 50.8328C69.3688 51.4127 68.8824 51.8814 68.2765 51.8814H62.6153C62.0492 51.8417 61.5947 51.3889 61.5947 50.8328V35.468C61.5947 34.2446 61.7063 31.1939 61.4353 30.034C61.0127 28.0876 59.7449 27.5394 58.1024 27.5394C56.7309 27.5394 55.2957 28.453 54.7137 29.9148C54.1316 31.3766 54.1874 33.8235 54.1874 35.468V50.8328C54.1874 51.4127 53.701 51.8814 53.0951 51.8814H47.4339C46.8599 51.8417 46.4133 51.3889 46.4133 50.8328L46.4054 35.468C46.4054 32.2346 46.9396 27.4759 42.913 27.4759C38.8386 27.4759 38.9981 32.1155 38.9981 35.468V50.8328C38.9981 51.4127 38.5117 51.8814 37.9057 51.8814Z" fill="#9F9F9F"/>
<path fill-rule="evenodd" clip-rule="evenodd" d="M142.684 20.2781C151.096 20.2781 155.649 27.4759 155.649 36.6279C155.649 45.4702 150.618 52.4852 142.684 52.4852C134.424 52.4852 129.927 45.2875 129.927 36.3181C129.927 27.2931 134.48 20.2781 142.684 20.2781ZM142.732 26.1968C138.554 26.1968 138.291 31.8692 138.291 35.4045C138.291 38.9477 138.235 46.5109 142.684 46.5109C147.078 46.5109 147.285 40.4095 147.285 36.6915C147.285 34.2446 147.181 31.321 146.44 29.0012C145.802 26.9833 144.534 26.1968 142.732 26.1968Z" fill="#9F9F9F"/>
<path fill-rule="evenodd" clip-rule="evenodd" d="M166.557 51.8814H160.912C160.346 51.8417 159.891 51.3889 159.891 50.8328L159.883 21.8352C159.931 21.303 160.401 20.8898 160.975 20.8898H166.23C166.724 20.9137 167.131 21.2474 167.243 21.7002V26.1332H167.346C168.933 22.1689 171.157 20.2781 175.072 20.2781C177.616 20.2781 180.096 21.1917 181.69 23.6943C183.173 26.0141 183.173 29.9148 183.173 32.7192V50.9678C183.11 51.4763 182.639 51.8814 182.081 51.8814H176.396C175.878 51.8417 175.447 51.4604 175.391 50.9678V35.2218C175.391 32.0519 175.758 27.4123 171.843 27.4123C170.464 27.4123 169.196 28.3339 168.566 29.7321C167.769 31.5037 167.665 33.2674 167.665 35.2218V50.8328C167.657 51.4127 167.163 51.8814 166.557 51.8814Z" fill="#9F9F9F"/>
<path fill-rule="evenodd" clip-rule="evenodd" d="M91.0247 38.0341C91.0247 40.2347 91.0805 42.0699 89.9642 44.0243C89.0632 45.6132 87.628 46.5903 86.0413 46.5903C83.8646 46.5903 82.5888 44.9379 82.5888 42.4989C82.5888 37.6845 86.9184 36.8106 91.0247 36.8106V38.0341ZM96.7416 51.8019C96.3669 52.1356 95.8247 52.1595 95.4021 51.937C93.5204 50.3799 93.1775 49.6569 92.1489 48.1713C89.0393 51.3332 86.8307 52.2786 82.8041 52.2786C78.028 52.2786 74.3204 49.3471 74.3204 43.4761C74.3204 38.8921 76.8081 35.7699 80.3642 34.2445C83.442 32.894 87.7396 32.6556 91.0247 32.2822V31.5513C91.0247 30.2087 91.1283 28.6198 90.331 27.4599C89.6453 26.4192 88.3217 25.9902 87.1496 25.9902C84.9888 25.9902 83.0672 27.0945 82.5968 29.3825C82.5011 29.8909 82.1264 30.3914 81.6081 30.4153L76.1144 29.8274C75.6519 29.7241 75.1337 29.3507 75.2692 28.6437C76.529 22.002 82.5569 20 87.947 20C90.7058 20 94.3097 20.7309 96.4865 22.8124C99.2453 25.3784 98.9822 28.8025 98.9822 32.5285V41.3311C98.9822 43.9766 100.082 45.1365 101.119 46.5665C101.478 47.075 101.558 47.6867 101.095 48.068C99.9389 49.0293 97.8818 50.8168 96.7496 51.8178L96.7416 51.8019Z" fill="#9F9F9F"/>
<path fill-rule="evenodd" clip-rule="evenodd" d="M16.7043 38.0341C16.7043 40.2347 16.7601 42.0699 15.6438 44.0242C14.7428 45.6131 13.3156 46.5903 11.7209 46.5903C9.54417 46.5903 8.2764 44.9379 8.2764 42.4989C8.2764 37.6845 12.606 36.8106 16.7043 36.8106V38.0341ZM22.4212 51.8019C22.0465 52.1356 21.5043 52.1594 21.0817 51.937C19.2 50.3799 18.8651 49.6569 17.8285 48.1713C14.7189 51.3332 12.5183 52.2786 8.48371 52.2786C3.71561 52.2786 0 49.3471 0 43.4761C0 38.8921 2.49568 35.7699 6.04385 34.2445C9.12158 32.894 13.4193 32.6556 16.7043 32.2822V31.5513C16.7043 30.2087 16.808 28.6198 16.0186 27.4599C15.3249 26.4192 14.0013 25.9902 12.8372 25.9902C10.6764 25.9902 8.74683 27.0945 8.2764 29.3825C8.18072 29.8909 7.80597 30.3914 7.29567 30.4153L1.79402 29.8274C1.33156 29.7241 0.82126 29.3507 0.948835 28.6436C2.21661 22.002 8.23653 20 13.6266 20C16.3854 20 19.9893 20.7309 22.1661 22.8124C24.9249 25.3784 24.6618 28.8025 24.6618 32.5285V41.331C24.6618 43.9766 25.7621 45.1365 26.7986 46.5665C27.1654 47.0749 27.2451 47.6867 26.7827 48.068C25.6265 49.0293 23.5694 50.8168 22.4372 51.8178L22.4212 51.8019Z" fill="#9F9F9F"/>
</svg>
