<svg width="184" height="70" viewBox="0 0 184 70" fill="none" xmlns="http://www.w3.org/2000/svg">
<path fill-rule="evenodd" clip-rule="evenodd" d="M178.142 46.333C178.252 47.5928 179.26 49.1964 181.007 49.1964H182.027C182.424 49.1964 182.749 48.8719 182.749 48.4756V26.0107H182.744C182.724 25.6322 182.411 25.3291 182.027 25.3291H178.863C178.479 25.3291 178.167 25.6322 178.147 26.0107H178.142V27.8361C176.202 25.4456 173.145 24.4535 170.08 24.4535C163.11 24.4535 157.461 30.1074 157.461 37.0823C157.461 44.0577 163.11 49.7117 170.08 49.7117C173.145 49.7117 176.487 48.5219 178.142 46.3302V46.333ZM170.091 45.2919C165.659 45.2919 162.066 41.6166 162.066 37.0823C162.066 32.5489 165.659 28.8735 170.091 28.8735C174.525 28.8735 178.117 32.5489 178.117 37.0823C178.117 41.6166 174.525 45.2919 170.091 45.2919Z" fill="#9F9F9F"/>
<path fill-rule="evenodd" clip-rule="evenodd" d="M153.458 35.481C153.458 28.9282 149.328 24.5076 142.74 24.5076C139.596 24.5076 137.018 26.3273 136.108 27.8904C135.911 26.6681 135.263 25.3834 133.252 25.3834H132.227C131.831 25.3834 131.507 25.7082 131.507 26.1045V46.3892C131.507 46.3899 131.507 46.3914 131.507 46.3924V48.5714H131.511C131.532 48.9492 131.845 49.2526 132.228 49.2526H135.393C135.441 49.2526 135.489 49.2469 135.535 49.238C135.556 49.2339 135.575 49.2256 135.596 49.2199C135.619 49.2126 135.644 49.207 135.666 49.1978C135.694 49.1861 135.72 49.1705 135.746 49.1558C135.759 49.1479 135.772 49.1425 135.785 49.1343C135.816 49.1138 135.845 49.0893 135.873 49.0643C135.878 49.0597 135.883 49.0566 135.888 49.0523C135.919 49.0218 135.948 48.9882 135.973 48.9533C136.053 48.8445 136.101 48.7128 136.109 48.5714H136.113V35.3007C136.113 31.7814 138.964 28.9282 142.481 28.9282C145.998 28.9282 148.849 31.7814 148.849 35.3007L148.852 46.3932L148.852 46.3892C148.852 46.3991 148.854 46.4092 148.854 46.4197V48.5714H148.858C148.879 48.9492 149.192 49.2526 149.574 49.2526H152.74C152.788 49.2526 152.836 49.2469 152.881 49.238C152.9 49.2345 152.917 49.2269 152.936 49.2218C152.962 49.2143 152.988 49.2079 153.013 49.1978C153.039 49.1871 153.063 49.1721 153.087 49.1583C153.102 49.1499 153.118 49.1438 153.132 49.1343C153.161 49.115 153.188 49.0918 153.214 49.0689C153.221 49.0626 153.229 49.058 153.235 49.0518C153.265 49.0228 153.292 48.9915 153.316 48.9588C153.318 48.9563 153.32 48.9543 153.322 48.9518C153.4 48.844 153.447 48.7138 153.456 48.5732C153.456 48.5722 153.456 48.5714 153.456 48.5714H153.46L153.458 35.481Z" fill="#9F9F9F"/>
<path fill-rule="evenodd" clip-rule="evenodd" d="M120.495 46.333C120.606 47.5928 121.614 49.1964 123.359 49.1964H124.381C124.777 49.1964 125.101 48.8719 125.101 48.4756V26.0107H125.097C125.076 25.6322 124.763 25.3291 124.381 25.3291H121.216C120.833 25.3291 120.52 25.6322 120.499 26.0107H120.495V27.8361C118.556 25.4456 115.498 24.4535 112.432 24.4535C105.463 24.4535 99.8136 30.1074 99.8136 37.0824C99.8136 44.0577 105.463 49.7118 112.432 49.7118C115.498 49.7118 118.84 48.522 120.495 46.3302L120.495 46.333ZM112.444 45.2918C108.012 45.2918 104.419 41.6167 104.419 37.0824C104.419 32.5489 108.012 28.8735 112.444 28.8735C116.877 28.8735 120.47 32.5489 120.47 37.0824C120.47 41.6167 116.877 45.2918 112.444 45.2918Z" fill="#9F9F9F"/>
<path fill-rule="evenodd" clip-rule="evenodd" d="M81.096 43.1156C83.209 44.5805 85.5154 45.2921 87.7318 45.2921C89.8433 45.2921 92.0262 44.1966 92.0262 42.2897C92.0262 39.7441 87.2696 39.348 84.2811 38.3315C81.2919 37.315 78.7175 35.2137 78.7175 31.8107C78.7175 26.6037 83.3535 24.4531 87.6806 24.4531C90.4221 24.4531 93.2508 25.3579 95.0847 26.6539C95.7162 27.1329 95.3316 27.6827 95.3316 27.6827L93.581 30.1849C93.3843 30.4667 93.0402 30.7102 92.5465 30.4052C92.0525 30.1004 90.3204 28.8733 87.6806 28.8733C85.0404 28.8733 83.4502 30.0935 83.4502 31.6058C83.4502 33.4193 85.517 33.9897 87.9379 34.6078C92.1568 35.7458 96.7589 37.1138 96.7589 42.2897C96.7589 46.8776 92.4709 49.7128 87.7318 49.7128C84.1405 49.7128 81.0828 48.6882 78.5184 46.8049C77.9842 46.2699 78.3573 45.773 78.3573 45.773L80.0993 43.2835C80.4538 42.8181 80.9006 42.9804 81.096 43.1156Z" fill="#9F9F9F"/>
<path fill-rule="evenodd" clip-rule="evenodd" d="M68.9278 46.333C69.0385 47.5928 70.0462 49.1964 71.7919 49.1964H72.8135C73.2094 49.1964 73.5339 48.8719 73.5339 48.4756V26.0107H73.5295C73.5087 25.6322 73.1961 25.3291 72.8135 25.3291H69.6483C69.2655 25.3291 68.9528 25.6322 68.9316 26.0107H68.9278V27.8361C66.9885 25.4456 63.931 24.4535 60.865 24.4535C53.8958 24.4535 48.2461 30.1074 48.2461 37.0824C48.2461 44.0577 53.8958 49.7118 60.865 49.7118C63.931 49.7118 67.2724 48.522 68.9273 46.3302L68.9278 46.333ZM60.8773 45.2918C56.4449 45.2918 52.8517 41.6167 52.8517 37.0824C52.8517 32.5489 56.4449 28.8735 60.8773 28.8735C65.3096 28.8735 68.9025 32.5489 68.9025 37.0824C68.9025 41.6167 65.3096 45.2918 60.8773 45.2918Z" fill="#9F9F9F"/>
<path fill-rule="evenodd" clip-rule="evenodd" d="M30.5549 37.9431C25.865 37.9431 22.0629 41.7451 22.0629 46.4354C22.0629 51.1255 25.865 54.9275 30.5549 54.9275C35.245 54.9275 39.047 51.1255 39.047 46.4354C39.047 41.7451 35.245 37.9431 30.5549 37.9431ZM8.49202 37.9439C3.80205 37.9439 0 41.7451 0 46.4354C0 51.1255 3.80205 54.9275 8.49202 54.9275C13.1822 54.9275 16.9844 51.1255 16.9844 46.4354C16.9844 41.7451 13.1822 37.9439 8.49202 37.9439ZM28.0154 27.3278C28.0154 32.0181 24.2136 35.8205 19.5235 35.8205C14.8334 35.8205 11.0315 32.0181 11.0315 27.3278C11.0315 22.6384 14.8334 18.8359 19.5235 18.8359C24.2136 18.8359 28.0154 22.6384 28.0154 27.3278Z" fill="#9F9F9F"/>
</svg>
