<svg width="190" height="71" viewBox="0 0 190 71" fill="none" xmlns="http://www.w3.org/2000/svg">
<path d="M66.1842 51.2208V29.7831H66.5662L82.1707 51.2208H87.0812V19.7393H81.6251V41.123H81.2432L65.6386 19.7393H60.7281V51.2208H66.1842ZM102.522 51.7068C109.724 51.7068 114.144 47.0629 114.144 39.287C114.144 31.5651 109.724 26.8672 102.522 26.8672C95.3746 26.8672 90.9005 31.5651 90.9005 39.287C90.9551 47.0629 95.32 51.7068 102.522 51.7068ZM102.522 47.1709C98.7028 47.1709 96.5203 44.3089 96.5203 39.287C96.5203 34.3191 98.7028 31.4031 102.522 31.4031C106.341 31.4031 108.524 34.3191 108.524 39.287C108.524 44.3089 106.341 47.1709 102.522 47.1709ZM119.109 21.5213V27.5152H115.289V31.8351H119.109V44.8489C119.109 49.4928 121.291 51.3288 126.856 51.3288C127.893 51.3288 128.93 51.2208 129.748 51.0588V46.8469C129.093 46.9009 128.657 46.9549 127.893 46.9549C125.602 46.9549 124.565 45.9289 124.565 43.5529V31.8351H129.748V27.5152H124.565V21.5213H119.109ZM133.022 51.2208H138.478V27.3532H133.022V51.2208ZM135.75 23.4112C137.55 23.4112 139.024 21.9532 139.024 20.1713C139.024 18.3353 137.55 16.8773 135.75 16.8773C133.949 16.8773 132.476 18.3353 132.476 20.1713C132.476 21.9532 133.949 23.4112 135.75 23.4112ZM153.428 51.7068C160.63 51.7068 165.049 47.0629 165.049 39.287C165.049 31.5651 160.63 26.8672 153.428 26.8672C146.28 26.8672 141.806 31.5651 141.806 39.287C141.806 47.0629 146.171 51.7068 153.428 51.7068ZM153.428 47.1709C149.609 47.1709 147.426 44.3089 147.426 39.287C147.426 34.3191 149.609 31.4031 153.428 31.4031C157.193 31.4031 159.43 34.3191 159.43 39.287C159.375 44.3089 157.193 47.1709 153.428 47.1709ZM168.269 51.2208H173.725V37.343C173.725 33.8331 175.798 31.6191 179.017 31.6191C182.345 31.6191 183.873 33.4551 183.873 37.073V51.2208H189.329V35.777C189.329 30.0531 186.383 26.8672 181.036 26.8672C177.435 26.8672 175.034 28.4872 173.888 31.1871H173.506V27.3532H168.214C168.269 27.3532 168.269 51.2208 168.269 51.2208Z" fill="#9F9F9F"/>
<path fill-rule="evenodd" clip-rule="evenodd" d="M8.4131 17.7243C10.0011 19.0054 10.5755 18.9043 13.5488 18.702L41.5587 17.0164C42.1669 17.0164 41.6601 16.4095 41.4573 16.3421L36.7947 13.0045C35.9162 12.3302 34.6998 11.5211 32.4361 11.7234L5.33844 13.7125C4.3586 13.8136 4.15587 14.3193 4.56132 14.6901L8.4131 17.7243ZM10.1025 24.231V53.6288C10.1025 55.2133 10.8796 55.7865 12.6703 55.6853L43.4508 53.8985C45.2415 53.7974 45.4443 52.7186 45.4443 51.4375V22.2419C45.4443 20.9608 44.9375 20.2528 43.8563 20.354L11.6905 22.2419C10.5079 22.343 10.1025 22.9499 10.1025 24.231ZM40.4775 25.8155C40.6802 26.692 40.4775 27.6023 39.599 27.7034L38.1124 28.0068V49.7181C36.8284 50.3924 35.6459 50.7969 34.6323 50.7969C33.0442 50.7969 32.6388 50.2912 31.4562 48.8078L21.7592 33.6032V48.3021L24.8339 48.9764C24.8339 48.9764 24.8339 50.7632 22.3674 50.7632L15.5423 51.1678C15.3396 50.7632 15.5423 49.7855 16.218 49.5832L18.0088 49.0775V29.6588L15.5423 29.4565C15.3396 28.58 15.8464 27.2989 17.2317 27.1977L24.5636 26.692L34.666 42.0652V28.4788L32.0982 28.1754C31.8955 27.0966 32.7064 26.2875 33.6862 26.1863L40.4775 25.8155ZM3.07467 11.0154L31.2873 8.95891C34.7336 8.65549 35.6459 8.85777 37.8083 10.4423L46.7958 16.7466C48.2824 17.8255 48.7892 18.1289 48.7892 19.3088V53.9322C48.7892 56.0899 48.0121 57.371 45.2415 57.5732L12.5014 59.5623C10.4066 59.6635 9.42673 59.3601 8.34553 57.9778L1.68938 49.381C0.506813 47.7964 0 46.6165 0 45.2342V14.4542C0 12.6674 0.810901 11.2177 3.07467 11.0154Z" fill="#9F9F9F"/>
</svg>
