<svg width="184" height="61" viewBox="0 0 184 61" fill="none" xmlns="http://www.w3.org/2000/svg">
<path d="M13.7439 16.1687C21.3183 16.1687 27.4878 22.3382 27.4878 29.9737C27.4878 37.6091 21.3183 43.7786 13.7439 43.7786C6.16947 43.7786 0 37.6702 0 29.9737C0 22.2771 6.16947 16.1687 13.7439 16.1687ZM121.496 15.8633V40.0525C121.496 41.885 122.229 42.3737 123.634 42.7402L123.695 43.0456H115.937V40.0525C115.021 42.2515 113.127 43.5954 110.684 43.5954C106.53 43.5954 103.782 39.8082 103.782 34.1884C103.782 31.0121 104.698 28.3244 106.408 26.3086C108.057 24.3539 110.318 23.3155 112.822 23.3155C114.044 23.3155 115.082 23.5599 115.937 24.1096V20.8111C115.937 20.0781 115.754 19.5894 115.387 19.2229C114.899 18.7953 114.105 18.6121 112.883 18.7342H112.822V18.4288L121.496 15.8633ZM150.938 23.3766V40.0525C150.938 41.885 151.671 42.3737 153.076 42.7402V43.0456H145.319V39.9914C144.402 42.1904 142.387 43.5954 140.126 43.5954C137.439 43.5954 135.728 42.3737 135.056 39.9914L134.934 39.3806C134.812 38.7697 134.751 38.1589 134.751 37.5481V28.6298C134.751 26.6751 134.323 26.0643 132.613 25.9421H132.552V25.6367L140.31 23.3766V37.4259C140.31 39.5027 141.226 40.6633 142.936 40.6633C143.975 40.6633 144.83 40.1136 145.319 39.1973V28.6298C145.319 26.614 144.952 26.0032 143.547 25.881H143.486V25.5756L150.938 23.3766ZM94.9244 23.3155C97.0012 23.3155 99.017 24.0485 100.361 25.3313C101.888 26.7973 102.682 28.9352 102.743 31.7451V31.8062H91.0761C90.8317 35.8377 93.3362 39.1362 96.6347 39.2584C99.017 39.4417 101.094 37.9756 102.254 35.5934L102.56 35.7155C101.888 40.1747 99.2613 43.5343 94.68 43.5343C89.4879 43.5343 86.5559 39.1973 86.4337 33.7609V32.3559C86.678 29.9737 87.411 27.8357 88.6938 26.2475C89.4879 25.2702 90.4042 24.5372 91.5037 24.0485C92.4199 23.5599 93.7638 23.3155 94.8633 23.3155H94.9244ZM175.738 23.3766C179.037 23.3766 181.053 25.4535 181.053 28.9963V40.3579C181.053 41.7018 181.663 42.3737 183.191 42.7402H183.252V43.0456H175.433V29.1796C175.433 26.9805 174.639 25.881 172.99 25.881C171.646 25.881 170.974 26.8584 170.607 27.7136C170.668 28.1411 170.729 28.5687 170.729 28.9963V40.5412C170.729 41.9461 171.157 42.4348 172.379 42.7402H172.44V43.0456H165.171V29.1796C165.171 26.9805 164.316 25.881 162.727 25.881C161.445 25.881 160.773 26.7973 160.467 27.5303V40.6023C160.467 42.0072 160.895 42.4959 162.117 42.8013H162.178V43.1067H154.909V28.5687C154.909 26.614 154.42 26.0032 152.771 25.881H152.71V25.5756L160.467 23.4377V26.6751C161.261 24.5983 163.094 23.3766 165.415 23.3766C168.042 23.3766 169.874 24.6594 170.485 26.9805C171.279 24.7815 173.295 23.3766 175.738 23.3766ZM64.3213 17.085L71.5903 34.1274L78.8593 17.085H86.678L86.617 17.3904L86.5282 17.4101C85.1812 17.7171 84.479 18.2209 84.479 19.8948V40.6633C84.6012 42.0072 85.3342 42.4348 86.617 42.7402H86.678V43.0456H76.7214V42.7402H76.7824C78.0652 42.4348 78.7982 42.0072 78.9204 40.6633V20.4446L69.3302 42.9845H68.7805L59.4346 21.0554V40.1747C59.4346 41.885 60.1676 42.3737 61.5726 42.6791H61.6336V42.9845H55.8918V42.6791H55.9528C57.3578 42.3737 58.0908 41.885 58.0908 40.1747V19.8948C58.0908 18.1845 57.3578 17.6958 55.9528 17.3904H55.8918V17.085H64.3213ZM130.964 23.3766V40.0525L130.965 40.1653C130.995 41.9053 131.726 42.3813 133.102 42.7402L133.163 43.0456H125.405V28.6298C125.405 26.6751 124.978 26.0643 123.267 25.9421H123.206V25.6367L130.964 23.3766ZM35.7341 16.9628C39.4602 16.9628 42.5755 22.8268 42.5755 29.9737C42.5755 37.1816 39.5213 42.9845 35.7341 42.9845C31.9469 42.9845 28.8927 37.1816 28.8927 29.9737C28.8927 22.7658 31.9469 16.9628 35.7341 16.9628ZM46.2405 18.3066C47.6454 18.3066 48.6839 23.5598 48.6839 29.9737C48.6839 36.3875 47.5844 41.6407 46.2405 41.6407C44.9101 41.6407 43.8192 36.492 43.7975 30.1657L43.7971 29.9737C43.7971 23.5598 44.8967 18.3066 46.2405 18.3066ZM113.738 24.415C111.295 24.415 109.768 27.6525 109.768 32.6613C109.768 35.0436 110.195 37.1205 110.928 38.5254C111.6 39.8692 112.578 40.6023 113.677 40.6023C114.777 40.6023 115.571 40.1136 115.937 39.1973V25.7589C115.51 24.9037 114.716 24.415 113.738 24.415ZM94.8633 24.4761C92.6643 24.4761 91.3815 27.1027 91.1982 30.7677V30.8288H97.8564C97.9786 27.9579 97.4899 26.0643 96.5736 25.148C96.085 24.7204 95.5352 24.4761 94.8633 24.4761ZM127.971 16.0465C129.742 16.0465 131.086 17.3904 131.086 19.1618C131.086 20.9332 129.742 22.2771 127.971 22.2771C126.199 22.2771 124.855 20.9332 124.855 19.1618C124.855 17.3904 126.199 16.0465 127.971 16.0465Z" fill="#9F9F9F"/>
</svg>
