<svg width="65" height="65" viewBox="0 0 65 65" fill="none" xmlns="http://www.w3.org/2000/svg">
<path d="M5.51441 19.0676C3.22977 19.0676 1.37109 17.209 1.37109 14.9244C1.37109 12.6399 3.2298 10.7812 5.51441 10.7812C7.79887 10.7812 9.6574 12.6399 9.6574 14.9244C9.6574 17.209 7.79887 19.0676 5.51441 19.0676ZM5.51441 13.0278C4.46856 13.0278 3.61764 13.8786 3.61764 14.9244C3.61764 15.9702 4.46852 16.821 5.51441 16.821C6.56012 16.821 7.41086 15.9701 7.41086 14.9244C7.41086 13.8786 6.56012 13.0278 5.51441 13.0278Z" fill="#FDC448"/>
<path d="M40.5886 25.4112C38.304 25.4112 36.4453 23.5527 36.4453 21.2683C36.4453 18.9837 38.304 17.125 40.5886 17.125C42.8731 17.125 44.7316 18.9837 44.7316 21.2683C44.7316 23.5527 42.8731 25.4112 40.5886 25.4112ZM40.5886 19.3715C39.5427 19.3715 38.6919 20.2224 38.6919 21.2683C38.6919 22.3139 39.5427 23.1646 40.5886 23.1646C41.6343 23.1646 42.4851 22.3139 42.4851 21.2683C42.485 20.2224 41.6343 19.3715 40.5886 19.3715Z" fill="#FDC448"/>
<path d="M23.0517 14.1225C19.3056 14.1225 16.2578 11.0749 16.2578 7.32885C16.2578 3.58279 19.3056 0.535156 23.0517 0.535156C26.7976 0.535156 29.8451 3.58279 29.8451 7.32885C29.8451 11.0749 26.7976 14.1225 23.0517 14.1225ZM23.0517 2.7817C20.5443 2.7817 18.5044 4.82155 18.5044 7.32885C18.5044 9.83615 20.5443 11.876 23.0517 11.876C25.5588 11.876 27.5985 9.83615 27.5985 7.32885C27.5985 4.82155 25.5588 2.7817 23.0517 2.7817Z" fill="#FDC448"/>
<path d="M58.1259 14.1225C54.3798 14.1225 51.332 11.0749 51.332 7.32885C51.332 3.58279 54.3798 0.535156 58.1259 0.535156C61.8718 0.535156 64.9194 3.58279 64.9194 7.32885C64.9194 11.0749 61.8718 14.1225 58.1259 14.1225ZM58.1259 2.7817C55.6184 2.7817 53.5786 4.82155 53.5786 7.32885C53.5786 9.83615 55.6184 11.876 58.1259 11.876C60.633 11.876 62.6729 9.83615 62.6729 7.32885C62.6729 4.82155 60.633 2.7817 58.1259 2.7817Z" fill="#FDC448"/>
<path d="M17.1914 8.24219L18.2338 10.2327L9.0578 15.0382L8.01537 13.0477L17.1914 8.24219Z" fill="#FDC448"/>
<path d="M28.3711 10.2656L38.8978 19.0768L37.4555 20.7998L26.9288 11.9887L28.3711 10.2656Z" fill="#FDC448"/>
<path d="M43.9135 21.1201L42.5 19.3739L53.1934 10.7188L54.6069 12.4649L43.9135 21.1201Z" fill="#FDC448"/>
<path d="M8.06359 64.4649H2.9642C1.37285 64.4649 0.078125 63.1524 0.078125 61.5391V27.5157C0.078125 25.9023 1.37285 24.5898 2.9642 24.5898H8.06359C9.65494 24.5898 10.9496 25.9023 10.9496 27.5157V61.5391C10.9496 63.1524 9.65494 64.4649 8.06359 64.4649ZM2.9642 26.8364C2.6115 26.8364 2.32467 27.1411 2.32467 27.5157V61.5391C2.32467 61.9136 2.6115 62.2184 2.9642 62.2184H8.06359C8.41625 62.2184 8.70308 61.9136 8.70308 61.5391V27.5157C8.70308 27.1411 8.41622 26.8364 8.06359 26.8364H2.9642Z" fill="#FDC448"/>
<path d="M25.5987 64.4624H20.4992C18.9079 64.4624 17.6133 63.0599 17.6133 61.336V23.5249C17.6133 21.801 18.9079 20.3984 20.4992 20.3984H25.5987C27.19 20.3984 28.4846 21.801 28.4846 23.5249V61.336C28.4846 63.0599 27.19 64.4624 25.5987 64.4624ZM20.4992 22.645C20.1526 22.645 19.8598 23.048 19.8598 23.5249V61.3361C19.8598 61.813 20.1526 62.2159 20.4992 62.2159H25.5987C25.9453 62.2159 26.2381 61.813 26.2381 61.3361V23.5249C26.2381 23.0479 25.9453 22.645 25.5987 22.645L20.4992 22.645Z" fill="#FDC448"/>
<path d="M43.1378 64.4658H38.0386C36.4471 64.4658 35.1523 63.3245 35.1523 61.9217V35.1027C35.1523 33.6999 36.4471 32.5586 38.0386 32.5586H43.1378C44.7293 32.5586 46.024 33.6999 46.024 35.1027V61.9217C46.024 63.3245 44.7293 64.4658 43.1378 64.4658ZM38.0386 34.8051C37.6258 34.8051 37.3989 35.0286 37.3989 35.1027V61.9217C37.3989 61.9958 37.6258 62.2192 38.0386 62.2192H43.1378C43.5506 62.2192 43.7775 61.9958 43.7775 61.9217V35.1027C43.7775 35.0286 43.5506 34.8051 43.1378 34.8051H38.0386Z" fill="#FDC448"/>
<path d="M60.6769 64.4624H55.5773C53.986 64.4624 52.6914 63.0599 52.6914 61.336V23.5249C52.6914 21.801 53.986 20.3984 55.5773 20.3984H60.6769C62.2684 20.3984 63.5631 21.801 63.5631 23.5249V61.336C63.5631 63.0599 62.2684 64.4624 60.6769 64.4624ZM55.5773 22.645C55.2307 22.645 54.938 23.048 54.938 23.5249V61.3361C54.938 61.813 55.2307 62.2159 55.5773 62.2159H60.6769C61.0237 62.2159 61.3165 61.813 61.3165 61.3361V23.5249C61.3165 23.0479 61.0237 22.645 60.6769 22.645L55.5773 22.645Z" fill="#FDC448"/>
</svg>
