<svg width="65" height="65" viewBox="0 0 65 65" fill="none" xmlns="http://www.w3.org/2000/svg">
<path d="M61.5678 7.54548H49.8937V3.35287C49.8937 1.66352 48.5193 0.289062 46.8299 0.289062H42.0326C40.3433 0.289062 38.9688 1.66352 38.9688 3.35287V7.54548H26.0282V3.35287C26.0282 1.66352 24.6538 0.289062 22.9644 0.289062H18.1671C16.4778 0.289062 15.1033 1.66352 15.1033 3.35287V7.54548H3.42935C1.73448 7.54548 0.355469 8.91991 0.355469 10.6093V20.2138V61.6457C0.355469 63.3351 1.73448 64.7095 3.42935 64.7095H61.5678C63.2626 64.7095 64.6417 63.3351 64.6417 61.6457V20.2137V10.6093C64.6417 8.91987 63.2626 7.54548 61.5678 7.54548ZM41.2263 9.80301V7.54548V3.35287C41.2263 2.90831 41.5879 2.54662 42.0326 2.54662H46.8299C47.2743 2.54662 47.6361 2.90835 47.6361 3.35287V7.54548V9.80301V13.6731C47.6361 14.1176 47.2743 14.4793 46.8299 14.4793H42.0326C41.588 14.4793 41.2264 14.1176 41.2264 13.6731L41.2263 9.80301ZM17.3609 9.80301V7.54548V3.35287C17.3609 2.90831 17.7226 2.54662 18.1671 2.54662H22.9644C23.409 2.54662 23.7707 2.90835 23.7707 3.35287V7.54548V9.80301V13.6731C23.7707 14.1176 23.4089 14.4793 22.9644 14.4793H18.1671C17.7226 14.4793 17.3609 14.1176 17.3609 13.6731V9.80301ZM62.3842 61.6457C62.3842 62.0901 62.0179 62.452 61.5678 62.452H3.42935C2.9793 62.452 2.61303 62.0901 2.61303 61.6457V21.3425H62.3842V61.6457ZM62.3842 19.0849H2.61303V10.6093C2.61303 10.1647 2.9793 9.80297 3.42935 9.80297H15.1033V13.673C15.1033 15.3624 16.4778 16.7368 18.1671 16.7368H22.9644C24.6538 16.7368 26.0282 15.3624 26.0282 13.673V9.80301H38.9688V13.6731C38.9688 15.3624 40.3433 16.7369 42.0326 16.7369H46.8299C48.5193 16.7369 49.8937 15.3624 49.8937 13.6731V9.80301H61.5678C62.0179 9.80301 62.3842 10.1647 62.3842 10.6093V19.0849Z" fill="#FDC448"/>
<path d="M13.6608 33.0297H18.2049C19.4738 33.0297 20.5062 31.9972 20.5062 30.7283V26.1842C20.5062 24.9152 19.4738 23.8828 18.2049 23.8828H13.6608C12.3918 23.8828 11.3594 24.9152 11.3594 26.1842V30.7283C11.3594 31.9972 12.3918 33.0297 13.6608 33.0297ZM13.6169 26.1842C13.6169 26.1601 13.6366 26.1403 13.6608 26.1403H18.2049C18.229 26.1403 18.2487 26.16 18.2487 26.1842V30.7283C18.2487 30.7525 18.229 30.7721 18.2049 30.7721H13.6608C13.6366 30.7721 13.6169 30.7525 13.6169 30.7283V26.1842Z" fill="#FDC448"/>
<path d="M30.2272 33.0297H34.7714C36.0403 33.0297 37.0727 31.9972 37.0727 30.7283V26.1842C37.0727 24.9152 36.0403 23.8828 34.7714 23.8828H30.2272C28.9582 23.8828 27.9258 24.9152 27.9258 26.1842V30.7283C27.9258 31.9972 28.9582 33.0297 30.2272 33.0297ZM30.1833 26.1842C30.1833 26.1601 30.203 26.1403 30.2272 26.1403H34.7714C34.7956 26.1403 34.8152 26.16 34.8152 26.1842V30.7283C34.8152 30.7525 34.7956 30.7721 34.7714 30.7721H30.2272C30.203 30.7721 30.1833 30.7525 30.1833 30.7283V26.1842Z" fill="#FDC448"/>
<path d="M46.7896 33.0297H51.3337C52.6029 33.0297 53.6353 31.9972 53.6353 30.7283V26.1842C53.6353 24.9152 52.6029 23.8828 51.3337 23.8828H46.7896C45.5207 23.8828 44.4883 24.9152 44.4883 26.1842V30.7283C44.4883 31.9972 45.5207 33.0297 46.7896 33.0297ZM46.7458 26.1842C46.7458 26.1601 46.7653 26.1403 46.7896 26.1403H51.3337C51.358 26.1403 51.3778 26.16 51.3778 26.1842V30.7283C51.3778 30.7525 51.358 30.7721 51.3337 30.7721H46.7896C46.766 30.7721 46.7458 30.752 46.7458 30.7283V26.1842Z" fill="#FDC448"/>
<path d="M13.6608 46.1782H18.2049C19.4738 46.1782 20.5062 45.1458 20.5062 43.8769V39.3329C20.5062 38.0637 19.4738 37.0312 18.2049 37.0312H13.6608C12.3918 37.0312 11.3594 38.0637 11.3594 39.3329V43.8769C11.3594 45.1458 12.3918 46.1782 13.6608 46.1782ZM13.6169 39.3329C13.6169 39.3085 13.6366 39.2888 13.6608 39.2888H18.2049C18.229 39.2888 18.2487 39.3085 18.2487 39.3329V43.8769C18.2487 43.9011 18.229 43.9207 18.2049 43.9207H13.6608C13.637 43.9207 13.6169 43.9006 13.6169 43.8769V39.3329Z" fill="#FDC448"/>
<path d="M30.2272 46.1782H34.7714C36.0403 46.1782 37.0727 45.1458 37.0727 43.8769V39.3329C37.0727 38.0637 36.0403 37.0312 34.7714 37.0312H30.2272C28.9582 37.0312 27.9258 38.0637 27.9258 39.3329V43.8769C27.9258 45.1458 28.9582 46.1782 30.2272 46.1782ZM30.1833 39.3329C30.1833 39.3085 30.203 39.2888 30.2272 39.2888H34.7714C34.7956 39.2888 34.8152 39.3085 34.8152 39.3329V43.8769C34.8152 43.9006 34.795 43.9207 34.7714 43.9207H30.2272C30.2035 43.9207 30.1833 43.9006 30.1833 43.8769V39.3329Z" fill="#FDC448"/>
<path d="M46.7896 46.1782H51.3337C52.6029 46.1782 53.6353 45.1458 53.6353 43.8769V39.3329C53.6353 38.0637 52.6029 37.0312 51.3337 37.0312H46.7896C45.5207 37.0312 44.4883 38.0637 44.4883 39.3329V43.8769C44.4883 45.1458 45.5207 46.1782 46.7896 46.1782ZM46.7458 39.3329C46.7458 39.3085 46.7653 39.2888 46.7896 39.2888H51.3337C51.358 39.2888 51.3778 39.3085 51.3778 39.3329V43.8769C51.3778 43.9006 51.3576 43.9207 51.3337 43.9207H46.7896C46.766 43.9207 46.7458 43.9006 46.7458 43.8769V39.3329Z" fill="#FDC448"/>
<path d="M13.6608 59.3303H18.2049C19.4738 59.3303 20.5062 58.2979 20.5062 57.029V52.4849C20.5062 51.216 19.4738 50.1836 18.2049 50.1836H13.6608C12.3918 50.1836 11.3594 51.216 11.3594 52.4849V57.029C11.3594 58.2979 12.3918 59.3303 13.6608 59.3303ZM13.6169 52.4849C13.6169 52.4607 13.6366 52.4411 13.6608 52.4411H18.2049C18.229 52.4411 18.2487 52.4607 18.2487 52.4849V57.029C18.2487 57.0532 18.229 57.0727 18.2049 57.0727H13.6608C13.6366 57.0727 13.6169 57.0532 13.6169 57.029V52.4849Z" fill="#FDC448"/>
<path d="M30.2272 59.3303H34.7714C36.0403 59.3303 37.0727 58.2979 37.0727 57.029V52.4849C37.0727 51.216 36.0403 50.1836 34.7714 50.1836H30.2272C28.9582 50.1836 27.9258 51.216 27.9258 52.4849V57.029C27.9258 58.2979 28.9582 59.3303 30.2272 59.3303ZM30.1833 52.4849C30.1833 52.4607 30.203 52.4411 30.2272 52.4411H34.7714C34.7956 52.4411 34.8152 52.4607 34.8152 52.4849V57.029C34.8152 57.0532 34.7956 57.0727 34.7714 57.0727H30.2272C30.203 57.0727 30.1833 57.0532 30.1833 57.029V52.4849Z" fill="#FDC448"/>
<path d="M46.7896 59.3303H51.3337C52.6029 59.3303 53.6353 58.2979 53.6353 57.029V52.4849C53.6353 51.216 52.6029 50.1836 51.3337 50.1836H46.7896C45.5207 50.1836 44.4883 51.216 44.4883 52.4849V57.029C44.4883 58.2979 45.5207 59.3303 46.7896 59.3303ZM46.7458 52.4849C46.7458 52.4607 46.7653 52.4411 46.7896 52.4411H51.3337C51.358 52.4411 51.3778 52.4607 51.3778 52.4849V57.029C51.3778 57.0532 51.358 57.0727 51.3337 57.0727H46.7896C46.766 57.0727 46.7458 57.0528 46.7458 57.029V52.4849Z" fill="#FDC448"/>
</svg>
