<svg width="65" height="65" viewBox="0 0 65 65" fill="none" xmlns="http://www.w3.org/2000/svg">
<g clip-path="url(#clip0_2_4245)">
<path d="M63.7068 57.6773H52.0154V30.8184H57.5808C58.2105 30.8184 58.7209 30.308 58.7209 29.6783V25.7407H63.8324H63.8356C64.4653 25.7407 64.9757 25.2303 64.9757 24.6006C64.9757 24.2019 64.7711 23.8511 64.4613 23.6473L33.1798 0.304406C32.7752 0.00269791 32.2207 0.00269791 31.816 0.304406L0.481738 23.6868C0.088091 23.9807 -0.0732174 24.4936 0.0815909 24.9598C0.236327 25.426 0.672441 25.7407 1.16362 25.7407H6.27512V29.6783C6.27512 30.308 6.78555 30.8184 7.41522 30.8184H12.9805V57.6773H1.28944C0.65973 57.6773 0.149335 58.1876 0.149335 58.8174V63.7843C0.149335 64.4139 0.65973 64.9244 1.28944 64.9244H63.7068C64.3365 64.9244 64.8469 64.4139 64.8469 63.7843V58.8174C64.8469 58.1876 64.3365 57.6773 63.7068 57.6773ZM32.4979 2.64076L60.3983 23.4605H4.59772L32.4979 2.64076ZM47.0488 57.6388V31.3151H49.7352V57.6388H47.0488ZM44.7686 57.6773H36.1215V30.8184H44.7686V57.6773ZM31.1546 31.3151H33.8413V57.6388H31.1546V31.3151ZM8.55528 25.8515H56.4407V28.5382H8.55528V25.8515ZM17.9474 31.3151V57.6388H15.2606V31.3151H17.9474ZM20.2276 30.8184H28.8744V57.6773H20.2276V30.8184ZM62.5667 62.6442H2.4295V59.9575H62.5667V62.6442Z" fill="#FDC448"/>
<path d="M32.4988 20.5291C29.4754 20.5291 27.0156 18.0693 27.0156 15.0458C27.0156 12.0222 29.4754 9.5625 32.4988 9.5625C35.5225 9.5625 37.9823 12.0222 37.9823 15.0458C37.9823 18.0693 35.5225 20.5291 32.4988 20.5291ZM32.4988 11.8427C30.7327 11.8427 29.2958 13.2796 29.2958 15.0458C29.2958 16.812 30.7327 18.2489 32.4988 18.2489C34.2652 18.2489 35.7021 16.812 35.7021 15.0458C35.7021 13.2796 34.2652 11.8427 32.4988 11.8427Z" fill="#FDC448"/>
</g>
<defs>
<clipPath id="clip0_2_4245">
<rect width="65" height="65" fill="white"/>
</clipPath>
</defs>
</svg>
